<svg width="515" height="829" viewBox="0 0 515 829" fill="none" xmlns="http://www.w3.org/2000/svg">
<rect x="9.21289" y="2" width="496.574" height="824.075" rx="23" fill="#FF9767" stroke="black" stroke-width="4"/>
<path d="M266.319 19.5372C266.319 24.3206 262.617 28.0572 258.221 28.0572C253.825 28.0572 250.123 24.3206 250.123 19.5372C250.123 14.7538 253.825 11.0172 258.221 11.0172C262.617 11.0172 266.319 14.7538 266.319 19.5372Z" fill="white" stroke="black" stroke-width="4"/>
<path d="M505.737 89.7419L515 97.2884V198.412L505.737 207.468V89.7419Z" fill="black"/>
<path d="M507.787 207.395L515 214.909V315.601L507.787 324.618V207.395Z" fill="black"/>
<path d="M7.21289 219.417L6.19888e-06 224.523V292.942L7.21289 299.069V219.417Z" fill="black"/>
<g clip-path="url(#clip0)">
<rect x="37" y="39" width="442.298" height="744" rx="17" fill="#0092CA"/>
<path d="M188.68 288.92V294.4H181.24V317H174.4V294.4H166.96V288.92H188.68ZM205.053 317.21C203.073 317.21 201.253 316.75 199.593 315.83C197.953 314.91 196.643 313.63 195.663 311.99C194.703 310.33 194.223 308.47 194.223 306.41C194.223 304.35 194.703 302.5 195.663 300.86C196.643 299.22 197.953 297.94 199.593 297.02C201.253 296.1 203.073 295.64 205.053 295.64C207.033 295.64 208.843 296.1 210.483 297.02C212.143 297.94 213.443 299.22 214.383 300.86C215.343 302.5 215.823 304.35 215.823 306.41C215.823 308.47 215.343 310.33 214.383 311.99C213.423 313.63 212.123 314.91 210.483 315.83C208.843 316.75 207.033 317.21 205.053 317.21ZM205.053 312.53C206.733 312.53 208.073 311.97 209.073 310.85C210.093 309.73 210.603 308.25 210.603 306.41C210.603 304.55 210.093 303.07 209.073 301.97C208.073 300.85 206.733 300.29 205.053 300.29C203.353 300.29 201.993 300.84 200.973 301.94C199.973 303.04 199.473 304.53 199.473 306.41C199.473 308.27 199.973 309.76 200.973 310.88C201.993 311.98 203.353 312.53 205.053 312.53ZM235.357 302.6C234.977 301.9 234.427 301.37 233.707 301.01C233.007 300.63 232.177 300.44 231.217 300.44C229.557 300.44 228.227 300.99 227.227 302.09C226.227 303.17 225.727 304.62 225.727 306.44C225.727 308.38 226.247 309.9 227.287 311C228.347 312.08 229.797 312.62 231.637 312.62C232.897 312.62 233.957 312.3 234.817 311.66C235.697 311.02 236.337 310.1 236.737 308.9H230.227V305.12H241.387V309.89C241.007 311.17 240.357 312.36 239.437 313.46C238.537 314.56 237.387 315.45 235.987 316.13C234.587 316.81 233.007 317.15 231.247 317.15C229.167 317.15 227.307 316.7 225.667 315.8C224.047 314.88 222.777 313.61 221.857 311.99C220.957 310.37 220.507 308.52 220.507 306.44C220.507 304.36 220.957 302.51 221.857 300.89C222.777 299.25 224.047 297.98 225.667 297.08C227.287 296.16 229.137 295.7 231.217 295.7C233.737 295.7 235.857 296.31 237.577 297.53C239.317 298.75 240.467 300.44 241.027 302.6H235.357ZM252.058 300.05V304.31H258.928V308.27H252.058V312.89H259.828V317H246.928V295.94H259.828V300.05H252.058ZM281.009 295.94V300.05H275.429V317H270.299V300.05H264.719V295.94H281.009ZM304.523 295.94V317H299.393V308.33H291.413V317H286.283V295.94H291.413V304.19H299.393V295.94H304.523ZM316.057 300.05V304.31H322.927V308.27H316.057V312.89H323.827V317H310.927V295.94H323.827V300.05H316.057ZM340.597 317L336.217 309.05H334.987V317H329.857V295.94H338.467C340.127 295.94 341.537 296.23 342.697 296.81C343.877 297.39 344.757 298.19 345.337 299.21C345.917 300.21 346.207 301.33 346.207 302.57C346.207 303.97 345.807 305.22 345.007 306.32C344.227 307.42 343.067 308.2 341.527 308.66L346.387 317H340.597ZM334.987 305.42H338.167C339.107 305.42 339.807 305.19 340.267 304.73C340.747 304.27 340.987 303.62 340.987 302.78C340.987 301.98 340.747 301.35 340.267 300.89C339.807 300.43 339.107 300.2 338.167 300.2H334.987V305.42Z" fill="#EEEEEE"/>
<path d="M158.001 354.96V357.7H154.281V369H150.861V357.7H147.141V354.96H158.001ZM168.378 357.72C169.658 357.72 170.684 358.147 171.458 359C172.231 359.84 172.618 361 172.618 362.48V369H169.218V362.94C169.218 362.193 169.024 361.613 168.638 361.2C168.251 360.787 167.731 360.58 167.078 360.58C166.424 360.58 165.904 360.787 165.518 361.2C165.131 361.613 164.938 362.193 164.938 362.94V369H161.518V354.2H164.938V359.34C165.284 358.847 165.758 358.453 166.358 358.16C166.958 357.867 167.631 357.72 168.378 357.72ZM187.314 363.24C187.314 363.56 187.294 363.893 187.254 364.24H179.514C179.568 364.933 179.788 365.467 180.174 365.84C180.574 366.2 181.061 366.38 181.634 366.38C182.488 366.38 183.081 366.02 183.414 365.3H187.054C186.868 366.033 186.528 366.693 186.034 367.28C185.554 367.867 184.948 368.327 184.214 368.66C183.481 368.993 182.661 369.16 181.754 369.16C180.661 369.16 179.688 368.927 178.834 368.46C177.981 367.993 177.314 367.327 176.834 366.46C176.354 365.593 176.114 364.58 176.114 363.42C176.114 362.26 176.348 361.247 176.814 360.38C177.294 359.513 177.961 358.847 178.814 358.38C179.668 357.913 180.648 357.68 181.754 357.68C182.834 357.68 183.794 357.907 184.634 358.36C185.474 358.813 186.128 359.46 186.594 360.3C187.074 361.14 187.314 362.12 187.314 363.24ZM183.814 362.34C183.814 361.753 183.614 361.287 183.214 360.94C182.814 360.593 182.314 360.42 181.714 360.42C181.141 360.42 180.654 360.587 180.254 360.92C179.868 361.253 179.628 361.727 179.534 362.34H183.814ZM196.277 363.42C196.277 362.26 196.51 361.247 196.977 360.38C197.457 359.513 198.117 358.847 198.957 358.38C199.81 357.913 200.783 357.68 201.877 357.68C203.277 357.68 204.443 358.047 205.377 358.78C206.323 359.513 206.943 360.547 207.237 361.88H203.597C203.29 361.027 202.697 360.6 201.817 360.6C201.19 360.6 200.69 360.847 200.317 361.34C199.943 361.82 199.757 362.513 199.757 363.42C199.757 364.327 199.943 365.027 200.317 365.52C200.69 366 201.19 366.24 201.817 366.24C202.697 366.24 203.29 365.813 203.597 364.96H207.237C206.943 366.267 206.323 367.293 205.377 368.04C204.43 368.787 203.263 369.16 201.877 369.16C200.783 369.16 199.81 368.927 198.957 368.46C198.117 367.993 197.457 367.327 196.977 366.46C196.51 365.593 196.277 364.58 196.277 363.42ZM217.726 357.72C219.006 357.72 220.033 358.147 220.806 359C221.58 359.84 221.966 361 221.966 362.48V369H218.566V362.94C218.566 362.193 218.373 361.613 217.986 361.2C217.6 360.787 217.08 360.58 216.426 360.58C215.773 360.58 215.253 360.787 214.866 361.2C214.48 361.613 214.286 362.193 214.286 362.94V369H210.866V354.2H214.286V359.34C214.633 358.847 215.106 358.453 215.706 358.16C216.306 357.867 216.98 357.72 217.726 357.72ZM225.463 363.4C225.463 362.253 225.676 361.247 226.103 360.38C226.543 359.513 227.136 358.847 227.883 358.38C228.629 357.913 229.463 357.68 230.383 357.68C231.169 357.68 231.856 357.84 232.443 358.16C233.043 358.48 233.503 358.9 233.823 359.42V357.84H237.243V369H233.823V367.42C233.489 367.94 233.023 368.36 232.423 368.68C231.836 369 231.149 369.16 230.363 369.16C229.456 369.16 228.629 368.927 227.883 368.46C227.136 367.98 226.543 367.307 226.103 366.44C225.676 365.56 225.463 364.547 225.463 363.4ZM233.823 363.42C233.823 362.567 233.583 361.893 233.103 361.4C232.636 360.907 232.063 360.66 231.383 360.66C230.703 360.66 230.123 360.907 229.643 361.4C229.176 361.88 228.943 362.547 228.943 363.4C228.943 364.253 229.176 364.933 229.643 365.44C230.123 365.933 230.703 366.18 231.383 366.18C232.063 366.18 232.636 365.933 233.103 365.44C233.583 364.947 233.823 364.273 233.823 363.42ZM247.737 366.1V369H245.997C244.757 369 243.79 368.7 243.097 368.1C242.404 367.487 242.057 366.493 242.057 365.12V360.68H240.697V357.84H242.057V355.12H245.477V357.84H247.717V360.68H245.477V365.16C245.477 365.493 245.557 365.733 245.717 365.88C245.877 366.027 246.144 366.1 246.517 366.1H247.737ZM263.08 360.68H261.24V369H257.82V360.68H256.58V357.84H257.82V357.52C257.82 356.147 258.214 355.107 259 354.4C259.787 353.68 260.94 353.32 262.46 353.32C262.714 353.32 262.9 353.327 263.02 353.34V356.24C262.367 356.2 261.907 356.293 261.64 356.52C261.374 356.747 261.24 357.153 261.24 357.74V357.84H263.08V360.68ZM271.567 369.16C270.474 369.16 269.487 368.927 268.607 368.46C267.741 367.993 267.054 367.327 266.547 366.46C266.054 365.593 265.807 364.58 265.807 363.42C265.807 362.273 266.061 361.267 266.567 360.4C267.074 359.52 267.767 358.847 268.647 358.38C269.527 357.913 270.514 357.68 271.607 357.68C272.701 357.68 273.687 357.913 274.567 358.38C275.447 358.847 276.141 359.52 276.647 360.4C277.154 361.267 277.407 362.273 277.407 363.42C277.407 364.567 277.147 365.58 276.627 366.46C276.121 367.327 275.421 367.993 274.527 368.46C273.647 368.927 272.661 369.16 271.567 369.16ZM271.567 366.2C272.221 366.2 272.774 365.96 273.227 365.48C273.694 365 273.927 364.313 273.927 363.42C273.927 362.527 273.701 361.84 273.247 361.36C272.807 360.88 272.261 360.64 271.607 360.64C270.941 360.64 270.387 360.88 269.947 361.36C269.507 361.827 269.287 362.513 269.287 363.42C269.287 364.313 269.501 365 269.927 365.48C270.367 365.96 270.914 366.2 271.567 366.2ZM284.442 359.7C284.842 359.087 285.342 358.607 285.942 358.26C286.542 357.9 287.208 357.72 287.942 357.72V361.34H287.002C286.148 361.34 285.508 361.527 285.082 361.9C284.655 362.26 284.442 362.9 284.442 363.82V369H281.022V357.84H284.442V359.7ZM303.015 360.68H301.175V369H297.755V360.68H296.515V357.84H297.755V357.52C297.755 356.147 298.148 355.107 298.935 354.4C299.721 353.68 300.875 353.32 302.395 353.32C302.648 353.32 302.835 353.327 302.955 353.34V356.24C302.301 356.2 301.841 356.293 301.575 356.52C301.308 356.747 301.175 357.153 301.175 357.74V357.84H303.015V360.68ZM317.442 357.84V369H314.022V367.48C313.675 367.973 313.202 368.373 312.602 368.68C312.015 368.973 311.362 369.12 310.642 369.12C309.788 369.12 309.035 368.933 308.382 368.56C307.728 368.173 307.222 367.62 306.862 366.9C306.502 366.18 306.322 365.333 306.322 364.36V357.84H309.722V363.9C309.722 364.647 309.915 365.227 310.302 365.64C310.688 366.053 311.208 366.26 311.862 366.26C312.528 366.26 313.055 366.053 313.442 365.64C313.828 365.227 314.022 364.647 314.022 363.9V357.84H317.442ZM327.918 366.1V369H326.178C324.938 369 323.972 368.7 323.278 368.1C322.585 367.487 322.238 366.493 322.238 365.12V360.68H320.878V357.84H322.238V355.12H325.658V357.84H327.898V360.68H325.658V365.16C325.658 365.493 325.738 365.733 325.898 365.88C326.058 366.027 326.325 366.1 326.698 366.1H327.918ZM342.643 357.84V369H339.223V367.48C338.877 367.973 338.403 368.373 337.803 368.68C337.217 368.973 336.563 369.12 335.843 369.12C334.99 369.12 334.237 368.933 333.583 368.56C332.93 368.173 332.423 367.62 332.063 366.9C331.703 366.18 331.523 365.333 331.523 364.36V357.84H334.923V363.9C334.923 364.647 335.117 365.227 335.503 365.64C335.89 366.053 336.41 366.26 337.063 366.26C337.73 366.26 338.257 366.053 338.643 365.64C339.03 365.227 339.223 364.647 339.223 363.9V357.84H342.643ZM350.32 359.7C350.72 359.087 351.22 358.607 351.82 358.26C352.42 357.9 353.086 357.72 353.82 357.72V361.34H352.88C352.026 361.34 351.386 361.527 350.96 361.9C350.533 362.26 350.32 362.9 350.32 363.82V369H346.9V357.84H350.32V359.7ZM367.774 363.24C367.774 363.56 367.754 363.893 367.714 364.24H359.974C360.028 364.933 360.248 365.467 360.634 365.84C361.034 366.2 361.521 366.38 362.094 366.38C362.948 366.38 363.541 366.02 363.874 365.3H367.514C367.328 366.033 366.988 366.693 366.494 367.28C366.014 367.867 365.408 368.327 364.674 368.66C363.941 368.993 363.121 369.16 362.214 369.16C361.121 369.16 360.148 368.927 359.294 368.46C358.441 367.993 357.774 367.327 357.294 366.46C356.814 365.593 356.574 364.58 356.574 363.42C356.574 362.26 356.808 361.247 357.274 360.38C357.754 359.513 358.421 358.847 359.274 358.38C360.128 357.913 361.108 357.68 362.214 357.68C363.294 357.68 364.254 357.907 365.094 358.36C365.934 358.813 366.588 359.46 367.054 360.3C367.534 361.14 367.774 362.12 367.774 363.24ZM364.274 362.34C364.274 361.753 364.074 361.287 363.674 360.94C363.274 360.593 362.774 360.42 362.174 360.42C361.601 360.42 361.114 360.587 360.714 360.92C360.328 361.253 360.088 361.727 359.994 362.34H364.274Z" fill="#C1C1C1"/>
<rect x="93" y="671" width="330" height="57" rx="28.5" fill="#EEEEEE"/>
<rect x="93" y="422" width="330" height="57" rx="28.5" fill="#EEEEEE"/>
<path d="M155.477 705.105C154.707 705.105 154.017 704.98 153.407 704.73C152.797 704.48 152.307 704.11 151.937 703.62C151.577 703.13 151.387 702.54 151.367 701.85H154.097C154.137 702.24 154.272 702.54 154.502 702.75C154.732 702.95 155.032 703.05 155.402 703.05C155.782 703.05 156.082 702.965 156.302 702.795C156.522 702.615 156.632 702.37 156.632 702.06C156.632 701.8 156.542 701.585 156.362 701.415C156.192 701.245 155.977 701.105 155.717 700.995C155.467 700.885 155.107 700.76 154.637 700.62C153.957 700.41 153.402 700.2 152.972 699.99C152.542 699.78 152.172 699.47 151.862 699.06C151.552 698.65 151.397 698.115 151.397 697.455C151.397 696.475 151.752 695.71 152.462 695.16C153.172 694.6 154.097 694.32 155.237 694.32C156.397 694.32 157.332 694.6 158.042 695.16C158.752 695.71 159.132 696.48 159.182 697.47H156.407C156.387 697.13 156.262 696.865 156.032 696.675C155.802 696.475 155.507 696.375 155.147 696.375C154.837 696.375 154.587 696.46 154.397 696.63C154.207 696.79 154.112 697.025 154.112 697.335C154.112 697.675 154.272 697.94 154.592 698.13C154.912 698.32 155.412 698.525 156.092 698.745C156.772 698.975 157.322 699.195 157.742 699.405C158.172 699.615 158.542 699.92 158.852 700.32C159.162 700.72 159.317 701.235 159.317 701.865C159.317 702.465 159.162 703.01 158.852 703.5C158.552 703.99 158.112 704.38 157.532 704.67C156.952 704.96 156.267 705.105 155.477 705.105ZM163.535 695.76C163.085 695.76 162.715 695.63 162.425 695.37C162.145 695.1 162.005 694.77 162.005 694.38C162.005 693.98 162.145 693.65 162.425 693.39C162.715 693.12 163.085 692.985 163.535 692.985C163.975 692.985 164.335 693.12 164.615 693.39C164.905 693.65 165.05 693.98 165.05 694.38C165.05 694.77 164.905 695.1 164.615 695.37C164.335 695.63 163.975 695.76 163.535 695.76ZM164.81 696.63V705H162.245V696.63H164.81ZM171.199 696.51C171.789 696.51 172.304 696.63 172.744 696.87C173.194 697.11 173.539 697.425 173.779 697.815V696.63H176.344V704.985C176.344 705.755 176.189 706.45 175.879 707.07C175.579 707.7 175.114 708.2 174.484 708.57C173.864 708.94 173.089 709.125 172.159 709.125C170.919 709.125 169.914 708.83 169.144 708.24C168.374 707.66 167.934 706.87 167.824 705.87H170.359C170.439 706.19 170.629 706.44 170.929 706.62C171.229 706.81 171.599 706.905 172.039 706.905C172.569 706.905 172.989 706.75 173.299 706.44C173.619 706.14 173.779 705.655 173.779 704.985V703.8C173.529 704.19 173.184 704.51 172.744 704.76C172.304 705 171.789 705.12 171.199 705.12C170.509 705.12 169.884 704.945 169.324 704.595C168.764 704.235 168.319 703.73 167.989 703.08C167.669 702.42 167.509 701.66 167.509 700.8C167.509 699.94 167.669 699.185 167.989 698.535C168.319 697.885 168.764 697.385 169.324 697.035C169.884 696.685 170.509 696.51 171.199 696.51ZM173.779 700.815C173.779 700.175 173.599 699.67 173.239 699.3C172.889 698.93 172.459 698.745 171.949 698.745C171.439 698.745 171.004 698.93 170.644 699.3C170.294 699.66 170.119 700.16 170.119 700.8C170.119 701.44 170.294 701.95 170.644 702.33C171.004 702.7 171.439 702.885 171.949 702.885C172.459 702.885 172.889 702.7 173.239 702.33C173.599 701.96 173.779 701.455 173.779 700.815ZM184.65 696.54C185.63 696.54 186.41 696.86 186.99 697.5C187.58 698.13 187.875 699 187.875 700.11V705H185.325V700.455C185.325 699.895 185.18 699.46 184.89 699.15C184.6 698.84 184.21 698.685 183.72 698.685C183.23 698.685 182.84 698.84 182.55 699.15C182.26 699.46 182.115 699.895 182.115 700.455V705H179.55V696.63H182.115V697.74C182.375 697.37 182.725 697.08 183.165 696.87C183.605 696.65 184.1 696.54 184.65 696.54ZM198.056 694.47V700.77C198.056 701.4 198.211 701.885 198.521 702.225C198.831 702.565 199.286 702.735 199.886 702.735C200.486 702.735 200.946 702.565 201.266 702.225C201.586 701.885 201.746 701.4 201.746 700.77V694.47H204.311V700.755C204.311 701.695 204.111 702.49 203.711 703.14C203.311 703.79 202.771 704.28 202.091 704.61C201.421 704.94 200.671 705.105 199.841 705.105C199.011 705.105 198.266 704.945 197.606 704.625C196.956 704.295 196.441 703.805 196.061 703.155C195.681 702.495 195.491 701.695 195.491 700.755V694.47H198.056ZM210.027 697.815C210.277 697.425 210.622 697.11 211.062 696.87C211.502 696.63 212.017 696.51 212.607 696.51C213.297 696.51 213.922 696.685 214.482 697.035C215.042 697.385 215.482 697.885 215.802 698.535C216.132 699.185 216.297 699.94 216.297 700.8C216.297 701.66 216.132 702.42 215.802 703.08C215.482 703.73 215.042 704.235 214.482 704.595C213.922 704.945 213.297 705.12 212.607 705.12C212.027 705.12 211.512 705 211.062 704.76C210.622 704.52 210.277 704.21 210.027 703.83V708.99H207.462V696.63H210.027V697.815ZM213.687 700.8C213.687 700.16 213.507 699.66 213.147 699.3C212.797 698.93 212.362 698.745 211.842 698.745C211.332 698.745 210.897 698.93 210.537 699.3C210.187 699.67 210.012 700.175 210.012 700.815C210.012 701.455 210.187 701.96 210.537 702.33C210.897 702.7 211.332 702.885 211.842 702.885C212.352 702.885 212.787 702.7 213.147 702.33C213.507 701.95 213.687 701.44 213.687 700.8ZM235.536 696.63L233.271 705H230.436L229.116 699.57L227.751 705H224.931L222.651 696.63H225.216L226.401 702.615L227.811 696.63H230.526L231.951 702.585L233.121 696.63H235.536ZM239.155 695.76C238.705 695.76 238.335 695.63 238.045 695.37C237.765 695.1 237.625 694.77 237.625 694.38C237.625 693.98 237.765 693.65 238.045 693.39C238.335 693.12 238.705 692.985 239.155 692.985C239.595 692.985 239.955 693.12 240.235 693.39C240.525 693.65 240.67 693.98 240.67 694.38C240.67 694.77 240.525 695.1 240.235 695.37C239.955 695.63 239.595 695.76 239.155 695.76ZM240.43 696.63V705H237.865V696.63H240.43ZM248.303 702.825V705H246.998C246.068 705 245.343 704.775 244.823 704.325C244.303 703.865 244.043 703.12 244.043 702.09V698.76H243.023V696.63H244.043V694.59H246.608V696.63H248.288V698.76H246.608V702.12C246.608 702.37 246.668 702.55 246.788 702.66C246.908 702.77 247.108 702.825 247.388 702.825H248.303ZM256.227 696.54C257.187 696.54 257.957 696.86 258.537 697.5C259.117 698.13 259.407 699 259.407 700.11V705H256.857V700.455C256.857 699.895 256.712 699.46 256.422 699.15C256.132 698.84 255.742 698.685 255.252 698.685C254.762 698.685 254.372 698.84 254.082 699.15C253.792 699.46 253.647 699.895 253.647 700.455V705H251.082V693.9H253.647V697.755C253.907 697.385 254.262 697.09 254.712 696.87C255.162 696.65 255.667 696.54 256.227 696.54ZM274.058 697.8C273.868 697.45 273.593 697.185 273.233 697.005C272.883 696.815 272.468 696.72 271.988 696.72C271.158 696.72 270.493 696.995 269.993 697.545C269.493 698.085 269.243 698.81 269.243 699.72C269.243 700.69 269.503 701.45 270.023 702C270.553 702.54 271.278 702.81 272.198 702.81C272.828 702.81 273.358 702.65 273.788 702.33C274.228 702.01 274.548 701.55 274.748 700.95H271.493V699.06H277.073V701.445C276.883 702.085 276.558 702.68 276.098 703.23C275.648 703.78 275.073 704.225 274.373 704.565C273.673 704.905 272.883 705.075 272.003 705.075C270.963 705.075 270.033 704.85 269.213 704.4C268.403 703.94 267.768 703.305 267.308 702.495C266.858 701.685 266.633 700.76 266.633 699.72C266.633 698.68 266.858 697.755 267.308 696.945C267.768 696.125 268.403 695.49 269.213 695.04C270.023 694.58 270.948 694.35 271.988 694.35C273.248 694.35 274.308 694.655 275.168 695.265C276.038 695.875 276.613 696.72 276.893 697.8H274.058ZM283.654 705.12C282.834 705.12 282.094 704.945 281.434 704.595C280.784 704.245 280.269 703.745 279.889 703.095C279.519 702.445 279.334 701.685 279.334 700.815C279.334 699.955 279.524 699.2 279.904 698.55C280.284 697.89 280.804 697.385 281.464 697.035C282.124 696.685 282.864 696.51 283.684 696.51C284.504 696.51 285.244 696.685 285.904 697.035C286.564 697.385 287.084 697.89 287.464 698.55C287.844 699.2 288.034 699.955 288.034 700.815C288.034 701.675 287.839 702.435 287.449 703.095C287.069 703.745 286.544 704.245 285.874 704.595C285.214 704.945 284.474 705.12 283.654 705.12ZM283.654 702.9C284.144 702.9 284.559 702.72 284.899 702.36C285.249 702 285.424 701.485 285.424 700.815C285.424 700.145 285.254 699.63 284.914 699.27C284.584 698.91 284.174 698.73 283.684 698.73C283.184 698.73 282.769 698.91 282.439 699.27C282.109 699.62 281.944 700.135 281.944 700.815C281.944 701.485 282.104 702 282.424 702.36C282.754 702.72 283.164 702.9 283.654 702.9ZM294.555 705.12C293.735 705.12 292.995 704.945 292.335 704.595C291.685 704.245 291.17 703.745 290.79 703.095C290.42 702.445 290.235 701.685 290.235 700.815C290.235 699.955 290.425 699.2 290.805 698.55C291.185 697.89 291.705 697.385 292.365 697.035C293.025 696.685 293.765 696.51 294.585 696.51C295.405 696.51 296.145 696.685 296.805 697.035C297.465 697.385 297.985 697.89 298.365 698.55C298.745 699.2 298.935 699.955 298.935 700.815C298.935 701.675 298.74 702.435 298.35 703.095C297.97 703.745 297.445 704.245 296.775 704.595C296.115 704.945 295.375 705.12 294.555 705.12ZM294.555 702.9C295.045 702.9 295.46 702.72 295.8 702.36C296.15 702 296.325 701.485 296.325 700.815C296.325 700.145 296.155 699.63 295.815 699.27C295.485 698.91 295.075 698.73 294.585 698.73C294.085 698.73 293.67 698.91 293.34 699.27C293.01 699.62 292.845 700.135 292.845 700.815C292.845 701.485 293.005 702 293.325 702.36C293.655 702.72 294.065 702.9 294.555 702.9ZM304.826 696.51C305.416 696.51 305.931 696.63 306.371 696.87C306.821 697.11 307.166 697.425 307.406 697.815V696.63H309.971V704.985C309.971 705.755 309.816 706.45 309.506 707.07C309.206 707.7 308.741 708.2 308.111 708.57C307.491 708.94 306.716 709.125 305.786 709.125C304.546 709.125 303.541 708.83 302.771 708.24C302.001 707.66 301.561 706.87 301.451 705.87H303.986C304.066 706.19 304.256 706.44 304.556 706.62C304.856 706.81 305.226 706.905 305.666 706.905C306.196 706.905 306.616 706.75 306.926 706.44C307.246 706.14 307.406 705.655 307.406 704.985V703.8C307.156 704.19 306.811 704.51 306.371 704.76C305.931 705 305.416 705.12 304.826 705.12C304.136 705.12 303.511 704.945 302.951 704.595C302.391 704.235 301.946 703.73 301.616 703.08C301.296 702.42 301.136 701.66 301.136 700.8C301.136 699.94 301.296 699.185 301.616 698.535C301.946 697.885 302.391 697.385 302.951 697.035C303.511 696.685 304.136 696.51 304.826 696.51ZM307.406 700.815C307.406 700.175 307.226 699.67 306.866 699.3C306.516 698.93 306.086 698.745 305.576 698.745C305.066 698.745 304.631 698.93 304.271 699.3C303.921 699.66 303.746 700.16 303.746 700.8C303.746 701.44 303.921 701.95 304.271 702.33C304.631 702.7 305.066 702.885 305.576 702.885C306.086 702.885 306.516 702.7 306.866 702.33C307.226 701.96 307.406 701.455 307.406 700.815ZM315.741 693.9V705H313.176V693.9H315.741ZM326.84 700.68C326.84 700.92 326.825 701.17 326.795 701.43H320.99C321.03 701.95 321.195 702.35 321.485 702.63C321.785 702.9 322.15 703.035 322.58 703.035C323.22 703.035 323.665 702.765 323.915 702.225H326.645C326.505 702.775 326.25 703.27 325.88 703.71C325.52 704.15 325.065 704.495 324.515 704.745C323.965 704.995 323.35 705.12 322.67 705.12C321.85 705.12 321.12 704.945 320.48 704.595C319.84 704.245 319.34 703.745 318.98 703.095C318.62 702.445 318.44 701.685 318.44 700.815C318.44 699.945 318.615 699.185 318.965 698.535C319.325 697.885 319.825 697.385 320.465 697.035C321.105 696.685 321.84 696.51 322.67 696.51C323.48 696.51 324.2 696.68 324.83 697.02C325.46 697.36 325.95 697.845 326.3 698.475C326.66 699.105 326.84 699.84 326.84 700.68ZM324.215 700.005C324.215 699.565 324.065 699.215 323.765 698.955C323.465 698.695 323.09 698.565 322.64 698.565C322.21 698.565 321.845 698.69 321.545 698.94C321.255 699.19 321.075 699.545 321.005 700.005H324.215Z" fill="black"/>
<path d="M356.171 698.368H355.5V698.333H348V701.667H352.71C352.022 703.607 350.176 705 348 705C345.239 705 343 702.761 343 700C343 697.239 345.239 695 348 695C349.275 695 350.434 695.481 351.317 696.266L353.674 693.909C352.186 692.522 350.195 691.667 348 691.667C343.398 691.667 339.667 695.398 339.667 700C339.667 704.602 343.398 708.333 348 708.333C352.602 708.333 356.333 704.602 356.333 700C356.333 699.441 356.276 698.896 356.171 698.368Z" fill="#FFC107"/>
<path d="M340.628 696.121L343.365 698.129C344.106 696.295 345.9 695 348 695C349.275 695 350.434 695.481 351.317 696.266L353.674 693.909C352.186 692.522 350.195 691.667 348 691.667C344.799 691.667 342.023 693.474 340.628 696.121Z" fill="#FF3D00"/>
<path d="M348 708.333C350.153 708.333 352.108 707.51 353.587 706.17L351.008 703.987C350.143 704.645 349.086 705.001 348 705C345.833 705 343.992 703.618 343.299 701.689L340.581 703.783C341.96 706.482 344.761 708.333 348 708.333Z" fill="#4CAF50"/>
<path d="M356.171 698.368H355.5V698.333H348V701.667H352.71C352.381 702.59 351.789 703.397 351.007 703.988L351.008 703.987L353.587 706.17C353.405 706.335 356.333 704.167 356.333 700C356.333 699.441 356.276 698.896 356.171 698.368Z" fill="#1976D2"/>
<path d="M163.814 454.02H167.174V456H161.249V445.47H163.814V454.02ZM173.558 456.12C172.738 456.12 171.998 455.945 171.338 455.595C170.688 455.245 170.173 454.745 169.793 454.095C169.423 453.445 169.238 452.685 169.238 451.815C169.238 450.955 169.428 450.2 169.808 449.55C170.188 448.89 170.708 448.385 171.368 448.035C172.028 447.685 172.768 447.51 173.588 447.51C174.408 447.51 175.148 447.685 175.808 448.035C176.468 448.385 176.988 448.89 177.368 449.55C177.748 450.2 177.938 450.955 177.938 451.815C177.938 452.675 177.743 453.435 177.353 454.095C176.973 454.745 176.448 455.245 175.778 455.595C175.118 455.945 174.378 456.12 173.558 456.12ZM173.558 453.9C174.048 453.9 174.463 453.72 174.803 453.36C175.153 453 175.328 452.485 175.328 451.815C175.328 451.145 175.158 450.63 174.818 450.27C174.488 449.91 174.078 449.73 173.588 449.73C173.088 449.73 172.673 449.91 172.343 450.27C172.013 450.62 171.848 451.135 171.848 451.815C171.848 452.485 172.008 453 172.328 453.36C172.658 453.72 173.068 453.9 173.558 453.9ZM183.828 447.51C184.418 447.51 184.933 447.63 185.373 447.87C185.823 448.11 186.168 448.425 186.408 448.815V447.63H188.973V455.985C188.973 456.755 188.818 457.45 188.508 458.07C188.208 458.7 187.743 459.2 187.113 459.57C186.493 459.94 185.718 460.125 184.788 460.125C183.548 460.125 182.543 459.83 181.773 459.24C181.003 458.66 180.563 457.87 180.453 456.87H182.988C183.068 457.19 183.258 457.44 183.558 457.62C183.858 457.81 184.228 457.905 184.668 457.905C185.198 457.905 185.618 457.75 185.928 457.44C186.248 457.14 186.408 456.655 186.408 455.985V454.8C186.158 455.19 185.813 455.51 185.373 455.76C184.933 456 184.418 456.12 183.828 456.12C183.138 456.12 182.513 455.945 181.953 455.595C181.393 455.235 180.948 454.73 180.618 454.08C180.298 453.42 180.138 452.66 180.138 451.8C180.138 450.94 180.298 450.185 180.618 449.535C180.948 448.885 181.393 448.385 181.953 448.035C182.513 447.685 183.138 447.51 183.828 447.51ZM186.408 451.815C186.408 451.175 186.228 450.67 185.868 450.3C185.518 449.93 185.088 449.745 184.578 449.745C184.068 449.745 183.633 449.93 183.273 450.3C182.923 450.66 182.748 451.16 182.748 451.8C182.748 452.44 182.923 452.95 183.273 453.33C183.633 453.7 184.068 453.885 184.578 453.885C185.088 453.885 185.518 453.7 185.868 453.33C186.228 452.96 186.408 452.455 186.408 451.815ZM193.469 446.76C193.019 446.76 192.649 446.63 192.359 446.37C192.079 446.1 191.939 445.77 191.939 445.38C191.939 444.98 192.079 444.65 192.359 444.39C192.649 444.12 193.019 443.985 193.469 443.985C193.909 443.985 194.269 444.12 194.549 444.39C194.839 444.65 194.984 444.98 194.984 445.38C194.984 445.77 194.839 446.1 194.549 446.37C194.269 446.63 193.909 446.76 193.469 446.76ZM194.744 447.63V456H192.179V447.63H194.744ZM203.053 447.54C204.033 447.54 204.813 447.86 205.393 448.5C205.983 449.13 206.278 450 206.278 451.11V456H203.728V451.455C203.728 450.895 203.583 450.46 203.293 450.15C203.003 449.84 202.613 449.685 202.123 449.685C201.633 449.685 201.243 449.84 200.953 450.15C200.663 450.46 200.518 450.895 200.518 451.455V456H197.953V447.63H200.518V448.74C200.778 448.37 201.128 448.08 201.568 447.87C202.008 447.65 202.503 447.54 203.053 447.54ZM225.954 447.63L223.689 456H220.854L219.534 450.57L218.169 456H215.349L213.069 447.63H215.634L216.819 453.615L218.229 447.63H220.944L222.369 453.585L223.539 447.63H225.954ZM229.572 446.76C229.122 446.76 228.752 446.63 228.462 446.37C228.182 446.1 228.042 445.77 228.042 445.38C228.042 444.98 228.182 444.65 228.462 444.39C228.752 444.12 229.122 443.985 229.572 443.985C230.012 443.985 230.372 444.12 230.652 444.39C230.942 444.65 231.087 444.98 231.087 445.38C231.087 445.77 230.942 446.1 230.652 446.37C230.372 446.63 230.012 446.76 229.572 446.76ZM230.847 447.63V456H228.282V447.63H230.847ZM238.721 453.825V456H237.416C236.486 456 235.761 455.775 235.241 455.325C234.721 454.865 234.461 454.12 234.461 453.09V449.76H233.441V447.63H234.461V445.59H237.026V447.63H238.706V449.76H237.026V453.12C237.026 453.37 237.086 453.55 237.206 453.66C237.326 453.77 237.526 453.825 237.806 453.825H238.721ZM246.645 447.54C247.605 447.54 248.375 447.86 248.955 448.5C249.535 449.13 249.825 450 249.825 451.11V456H247.275V451.455C247.275 450.895 247.13 450.46 246.84 450.15C246.55 449.84 246.16 449.685 245.67 449.685C245.18 449.685 244.79 449.84 244.5 450.15C244.21 450.46 244.065 450.895 244.065 451.455V456H241.5V444.9H244.065V448.755C244.325 448.385 244.68 448.09 245.13 447.87C245.58 447.65 246.085 447.54 246.645 447.54ZM264.476 448.8C264.286 448.45 264.011 448.185 263.651 448.005C263.301 447.815 262.886 447.72 262.406 447.72C261.576 447.72 260.911 447.995 260.411 448.545C259.911 449.085 259.661 449.81 259.661 450.72C259.661 451.69 259.921 452.45 260.441 453C260.971 453.54 261.696 453.81 262.616 453.81C263.246 453.81 263.776 453.65 264.206 453.33C264.646 453.01 264.966 452.55 265.166 451.95H261.911V450.06H267.491V452.445C267.301 453.085 266.976 453.68 266.516 454.23C266.066 454.78 265.491 455.225 264.791 455.565C264.091 455.905 263.301 456.075 262.421 456.075C261.381 456.075 260.451 455.85 259.631 455.4C258.821 454.94 258.186 454.305 257.726 453.495C257.276 452.685 257.051 451.76 257.051 450.72C257.051 449.68 257.276 448.755 257.726 447.945C258.186 447.125 258.821 446.49 259.631 446.04C260.441 445.58 261.366 445.35 262.406 445.35C263.666 445.35 264.726 445.655 265.586 446.265C266.456 446.875 267.031 447.72 267.311 448.8H264.476ZM274.072 456.12C273.252 456.12 272.512 455.945 271.852 455.595C271.202 455.245 270.687 454.745 270.307 454.095C269.937 453.445 269.752 452.685 269.752 451.815C269.752 450.955 269.942 450.2 270.322 449.55C270.702 448.89 271.222 448.385 271.882 448.035C272.542 447.685 273.282 447.51 274.102 447.51C274.922 447.51 275.662 447.685 276.322 448.035C276.982 448.385 277.502 448.89 277.882 449.55C278.262 450.2 278.452 450.955 278.452 451.815C278.452 452.675 278.257 453.435 277.867 454.095C277.487 454.745 276.962 455.245 276.292 455.595C275.632 455.945 274.892 456.12 274.072 456.12ZM274.072 453.9C274.562 453.9 274.977 453.72 275.317 453.36C275.667 453 275.842 452.485 275.842 451.815C275.842 451.145 275.672 450.63 275.332 450.27C275.002 449.91 274.592 449.73 274.102 449.73C273.602 449.73 273.187 449.91 272.857 450.27C272.527 450.62 272.362 451.135 272.362 451.815C272.362 452.485 272.522 453 272.842 453.36C273.172 453.72 273.582 453.9 274.072 453.9ZM284.972 456.12C284.152 456.12 283.412 455.945 282.752 455.595C282.102 455.245 281.587 454.745 281.207 454.095C280.837 453.445 280.652 452.685 280.652 451.815C280.652 450.955 280.842 450.2 281.222 449.55C281.602 448.89 282.122 448.385 282.782 448.035C283.442 447.685 284.182 447.51 285.002 447.51C285.822 447.51 286.562 447.685 287.222 448.035C287.882 448.385 288.402 448.89 288.782 449.55C289.162 450.2 289.352 450.955 289.352 451.815C289.352 452.675 289.157 453.435 288.767 454.095C288.387 454.745 287.862 455.245 287.192 455.595C286.532 455.945 285.792 456.12 284.972 456.12ZM284.972 453.9C285.462 453.9 285.877 453.72 286.217 453.36C286.567 453 286.742 452.485 286.742 451.815C286.742 451.145 286.572 450.63 286.232 450.27C285.902 449.91 285.492 449.73 285.002 449.73C284.502 449.73 284.087 449.91 283.757 450.27C283.427 450.62 283.262 451.135 283.262 451.815C283.262 452.485 283.422 453 283.742 453.36C284.072 453.72 284.482 453.9 284.972 453.9ZM295.243 447.51C295.833 447.51 296.348 447.63 296.788 447.87C297.238 448.11 297.583 448.425 297.823 448.815V447.63H300.388V455.985C300.388 456.755 300.233 457.45 299.923 458.07C299.623 458.7 299.158 459.2 298.528 459.57C297.908 459.94 297.133 460.125 296.203 460.125C294.963 460.125 293.958 459.83 293.188 459.24C292.418 458.66 291.978 457.87 291.868 456.87H294.403C294.483 457.19 294.673 457.44 294.973 457.62C295.273 457.81 295.643 457.905 296.083 457.905C296.613 457.905 297.033 457.75 297.343 457.44C297.663 457.14 297.823 456.655 297.823 455.985V454.8C297.573 455.19 297.228 455.51 296.788 455.76C296.348 456 295.833 456.12 295.243 456.12C294.553 456.12 293.928 455.945 293.368 455.595C292.808 455.235 292.363 454.73 292.033 454.08C291.713 453.42 291.553 452.66 291.553 451.8C291.553 450.94 291.713 450.185 292.033 449.535C292.363 448.885 292.808 448.385 293.368 448.035C293.928 447.685 294.553 447.51 295.243 447.51ZM297.823 451.815C297.823 451.175 297.643 450.67 297.283 450.3C296.933 449.93 296.503 449.745 295.993 449.745C295.483 449.745 295.048 449.93 294.688 450.3C294.338 450.66 294.163 451.16 294.163 451.8C294.163 452.44 294.338 452.95 294.688 453.33C295.048 453.7 295.483 453.885 295.993 453.885C296.503 453.885 296.933 453.7 297.283 453.33C297.643 452.96 297.823 452.455 297.823 451.815ZM306.159 444.9V456H303.594V444.9H306.159ZM317.258 451.68C317.258 451.92 317.243 452.17 317.213 452.43H311.408C311.448 452.95 311.613 453.35 311.903 453.63C312.203 453.9 312.568 454.035 312.998 454.035C313.638 454.035 314.083 453.765 314.333 453.225H317.063C316.923 453.775 316.668 454.27 316.298 454.71C315.938 455.15 315.483 455.495 314.933 455.745C314.383 455.995 313.768 456.12 313.088 456.12C312.268 456.12 311.538 455.945 310.898 455.595C310.258 455.245 309.758 454.745 309.398 454.095C309.038 453.445 308.858 452.685 308.858 451.815C308.858 450.945 309.033 450.185 309.383 449.535C309.743 448.885 310.243 448.385 310.883 448.035C311.523 447.685 312.258 447.51 313.088 447.51C313.898 447.51 314.618 447.68 315.248 448.02C315.878 448.36 316.368 448.845 316.718 449.475C317.078 450.105 317.258 450.84 317.258 451.68ZM314.633 451.005C314.633 450.565 314.483 450.215 314.183 449.955C313.883 449.695 313.508 449.565 313.058 449.565C312.628 449.565 312.263 449.69 311.963 449.94C311.673 450.19 311.493 450.545 311.423 451.005H314.633Z" fill="black"/>
<path d="M356.171 449.368H355.5V449.333H348V452.667H352.71C352.022 454.607 350.176 456 348 456C345.239 456 343 453.761 343 451C343 448.239 345.239 446 348 446C349.275 446 350.434 446.481 351.317 447.266L353.674 444.909C352.186 443.522 350.195 442.667 348 442.667C343.398 442.667 339.667 446.398 339.667 451C339.667 455.602 343.398 459.333 348 459.333C352.602 459.333 356.333 455.602 356.333 451C356.333 450.441 356.276 449.896 356.171 449.368Z" fill="#FFC107"/>
<path d="M340.628 447.121L343.365 449.129C344.106 447.295 345.9 446 348 446C349.275 446 350.434 446.481 351.317 447.266L353.674 444.909C352.186 443.522 350.195 442.667 348 442.667C344.799 442.667 342.023 444.474 340.628 447.121Z" fill="#FF3D00"/>
<path d="M348 459.333C350.153 459.333 352.108 458.51 353.587 457.17L351.008 454.987C350.143 455.645 349.086 456.001 348 456C345.833 456 343.992 454.618 343.299 452.689L340.581 454.783C341.96 457.482 344.761 459.333 348 459.333Z" fill="#4CAF50"/>
<path d="M356.171 449.368H355.5V449.333H348V452.667H352.71C352.381 453.59 351.789 454.397 351.007 454.988L351.008 454.987L353.587 457.17C353.405 457.335 356.333 455.167 356.333 451C356.333 450.441 356.276 449.896 356.171 449.368Z" fill="#1976D2"/>
<path d="M132.242 641H129.677L125.387 634.505V641H122.822V630.47H125.387L129.677 636.995V630.47H132.242V641ZM143.341 636.68C143.341 636.92 143.326 637.17 143.296 637.43H137.491C137.531 637.95 137.696 638.35 137.986 638.63C138.286 638.9 138.651 639.035 139.081 639.035C139.721 639.035 140.166 638.765 140.416 638.225H143.146C143.006 638.775 142.751 639.27 142.381 639.71C142.021 640.15 141.566 640.495 141.016 640.745C140.466 640.995 139.851 641.12 139.171 641.12C138.351 641.12 137.621 640.945 136.981 640.595C136.341 640.245 135.841 639.745 135.481 639.095C135.121 638.445 134.941 637.685 134.941 636.815C134.941 635.945 135.116 635.185 135.466 634.535C135.826 633.885 136.326 633.385 136.966 633.035C137.606 632.685 138.341 632.51 139.171 632.51C139.981 632.51 140.701 632.68 141.331 633.02C141.961 633.36 142.451 633.845 142.801 634.475C143.161 635.105 143.341 635.84 143.341 636.68ZM140.716 636.005C140.716 635.565 140.566 635.215 140.266 634.955C139.966 634.695 139.591 634.565 139.141 634.565C138.711 634.565 138.346 634.69 138.046 634.94C137.756 635.19 137.576 635.545 137.506 636.005H140.716ZM158.059 632.63L155.794 641H152.959L151.639 635.57L150.274 641H147.454L145.174 632.63H147.739L148.924 638.615L150.334 632.63H153.049L154.474 638.585L155.644 632.63H158.059ZM169.581 638.825V641H168.276C167.346 641 166.621 640.775 166.101 640.325C165.581 639.865 165.321 639.12 165.321 638.09V634.76H164.301V632.63H165.321V630.59H167.886V632.63H169.566V634.76H167.886V638.12C167.886 638.37 167.946 638.55 168.066 638.66C168.186 638.77 168.386 638.825 168.666 638.825H169.581ZM176.17 641.12C175.35 641.12 174.61 640.945 173.95 640.595C173.3 640.245 172.785 639.745 172.405 639.095C172.035 638.445 171.85 637.685 171.85 636.815C171.85 635.955 172.04 635.2 172.42 634.55C172.8 633.89 173.32 633.385 173.98 633.035C174.64 632.685 175.38 632.51 176.2 632.51C177.02 632.51 177.76 632.685 178.42 633.035C179.08 633.385 179.6 633.89 179.98 634.55C180.36 635.2 180.55 635.955 180.55 636.815C180.55 637.675 180.355 638.435 179.965 639.095C179.585 639.745 179.06 640.245 178.39 640.595C177.73 640.945 176.99 641.12 176.17 641.12ZM176.17 638.9C176.66 638.9 177.075 638.72 177.415 638.36C177.765 638 177.94 637.485 177.94 636.815C177.94 636.145 177.77 635.63 177.43 635.27C177.1 634.91 176.69 634.73 176.2 634.73C175.7 634.73 175.285 634.91 174.955 635.27C174.625 635.62 174.46 636.135 174.46 636.815C174.46 637.485 174.62 638 174.94 638.36C175.27 638.72 175.68 638.9 176.17 638.9ZM195.364 630.47V632.525H192.574V641H190.009V632.525H187.219V630.47H195.364ZM201.812 641.12C200.992 641.12 200.252 640.945 199.592 640.595C198.942 640.245 198.427 639.745 198.047 639.095C197.677 638.445 197.492 637.685 197.492 636.815C197.492 635.955 197.682 635.2 198.062 634.55C198.442 633.89 198.962 633.385 199.622 633.035C200.282 632.685 201.022 632.51 201.842 632.51C202.662 632.51 203.402 632.685 204.062 633.035C204.722 633.385 205.242 633.89 205.622 634.55C206.002 635.2 206.192 635.955 206.192 636.815C206.192 637.675 205.997 638.435 205.607 639.095C205.227 639.745 204.702 640.245 204.032 640.595C203.372 640.945 202.632 641.12 201.812 641.12ZM201.812 638.9C202.302 638.9 202.717 638.72 203.057 638.36C203.407 638 203.582 637.485 203.582 636.815C203.582 636.145 203.412 635.63 203.072 635.27C202.742 634.91 202.332 634.73 201.842 634.73C201.342 634.73 200.927 634.91 200.597 635.27C200.267 635.62 200.102 636.135 200.102 636.815C200.102 637.485 200.262 638 200.582 638.36C200.912 638.72 201.322 638.9 201.812 638.9ZM212.082 632.51C212.672 632.51 213.187 632.63 213.627 632.87C214.077 633.11 214.422 633.425 214.662 633.815V632.63H217.227V640.985C217.227 641.755 217.072 642.45 216.762 643.07C216.462 643.7 215.997 644.2 215.367 644.57C214.747 644.94 213.972 645.125 213.042 645.125C211.802 645.125 210.797 644.83 210.027 644.24C209.257 643.66 208.817 642.87 208.707 641.87H211.242C211.322 642.19 211.512 642.44 211.812 642.62C212.112 642.81 212.482 642.905 212.922 642.905C213.452 642.905 213.872 642.75 214.182 642.44C214.502 642.14 214.662 641.655 214.662 640.985V639.8C214.412 640.19 214.067 640.51 213.627 640.76C213.187 641 212.672 641.12 212.082 641.12C211.392 641.12 210.767 640.945 210.207 640.595C209.647 640.235 209.202 639.73 208.872 639.08C208.552 638.42 208.392 637.66 208.392 636.8C208.392 635.94 208.552 635.185 208.872 634.535C209.202 633.885 209.647 633.385 210.207 633.035C210.767 632.685 211.392 632.51 212.082 632.51ZM214.662 636.815C214.662 636.175 214.482 635.67 214.122 635.3C213.772 634.93 213.342 634.745 212.832 634.745C212.322 634.745 211.887 634.93 211.527 635.3C211.177 635.66 211.002 636.16 211.002 636.8C211.002 637.44 211.177 637.95 211.527 638.33C211.887 638.7 212.322 638.885 212.832 638.885C213.342 638.885 213.772 638.7 214.122 638.33C214.482 637.96 214.662 637.455 214.662 636.815ZM228.323 636.68C228.323 636.92 228.308 637.17 228.278 637.43H222.473C222.513 637.95 222.678 638.35 222.968 638.63C223.268 638.9 223.633 639.035 224.063 639.035C224.703 639.035 225.148 638.765 225.398 638.225H228.128C227.988 638.775 227.733 639.27 227.363 639.71C227.003 640.15 226.548 640.495 225.998 640.745C225.448 640.995 224.833 641.12 224.153 641.12C223.333 641.12 222.603 640.945 221.963 640.595C221.323 640.245 220.823 639.745 220.463 639.095C220.103 638.445 219.923 637.685 219.923 636.815C219.923 635.945 220.098 635.185 220.448 634.535C220.808 633.885 221.308 633.385 221.948 633.035C222.588 632.685 223.323 632.51 224.153 632.51C224.963 632.51 225.683 632.68 226.313 633.02C226.943 633.36 227.433 633.845 227.783 634.475C228.143 635.105 228.323 635.84 228.323 636.68ZM225.698 636.005C225.698 635.565 225.548 635.215 225.248 634.955C224.948 634.695 224.573 634.565 224.123 634.565C223.693 634.565 223.328 634.69 223.028 634.94C222.738 635.19 222.558 635.545 222.488 636.005H225.698ZM235.691 638.825V641H234.386C233.456 641 232.731 640.775 232.211 640.325C231.691 639.865 231.431 639.12 231.431 638.09V634.76H230.411V632.63H231.431V630.59H233.996V632.63H235.676V634.76H233.996V638.12C233.996 638.37 234.056 638.55 234.176 638.66C234.296 638.77 234.496 638.825 234.776 638.825H235.691ZM243.615 632.54C244.575 632.54 245.345 632.86 245.925 633.5C246.505 634.13 246.795 635 246.795 636.11V641H244.245V636.455C244.245 635.895 244.1 635.46 243.81 635.15C243.52 634.84 243.13 634.685 242.64 634.685C242.15 634.685 241.76 634.84 241.47 635.15C241.18 635.46 241.035 635.895 241.035 636.455V641H238.47V629.9H241.035V633.755C241.295 633.385 241.65 633.09 242.1 632.87C242.55 632.65 243.055 632.54 243.615 632.54ZM257.817 636.68C257.817 636.92 257.802 637.17 257.772 637.43H251.967C252.007 637.95 252.172 638.35 252.462 638.63C252.762 638.9 253.127 639.035 253.557 639.035C254.197 639.035 254.642 638.765 254.892 638.225H257.622C257.482 638.775 257.227 639.27 256.857 639.71C256.497 640.15 256.042 640.495 255.492 640.745C254.942 640.995 254.327 641.12 253.647 641.12C252.827 641.12 252.097 640.945 251.457 640.595C250.817 640.245 250.317 639.745 249.957 639.095C249.597 638.445 249.417 637.685 249.417 636.815C249.417 635.945 249.592 635.185 249.942 634.535C250.302 633.885 250.802 633.385 251.442 633.035C252.082 632.685 252.817 632.51 253.647 632.51C254.457 632.51 255.177 632.68 255.807 633.02C256.437 633.36 256.927 633.845 257.277 634.475C257.637 635.105 257.817 635.84 257.817 636.68ZM255.192 636.005C255.192 635.565 255.042 635.215 254.742 634.955C254.442 634.695 254.067 634.565 253.617 634.565C253.187 634.565 252.822 634.69 252.522 634.94C252.232 635.19 252.052 635.545 251.982 636.005H255.192ZM263.086 634.025C263.386 633.565 263.761 633.205 264.211 632.945C264.661 632.675 265.161 632.54 265.711 632.54V635.255H265.006C264.366 635.255 263.886 635.395 263.566 635.675C263.246 635.945 263.086 636.425 263.086 637.115V641H260.521V632.63H263.086V634.025ZM271.362 629.885C272.432 629.885 273.287 630.165 273.927 630.725C274.577 631.285 274.902 632.075 274.902 633.095C274.902 634.035 274.592 634.77 273.972 635.3C273.362 635.82 272.552 636.085 271.542 636.095L271.467 637.22H269.217L269.142 634.43H270.042C270.812 634.43 271.397 634.335 271.797 634.145C272.207 633.955 272.412 633.61 272.412 633.11C272.412 632.76 272.317 632.485 272.127 632.285C271.937 632.085 271.672 631.985 271.332 631.985C270.972 631.985 270.692 632.09 270.492 632.3C270.292 632.5 270.192 632.775 270.192 633.125H267.777C267.757 632.515 267.882 631.965 268.152 631.475C268.432 630.985 268.842 630.6 269.382 630.32C269.932 630.03 270.592 629.885 271.362 629.885ZM270.372 641.12C269.922 641.12 269.552 640.99 269.262 640.73C268.982 640.46 268.842 640.13 268.842 639.74C268.842 639.34 268.982 639.005 269.262 638.735C269.552 638.465 269.922 638.33 270.372 638.33C270.812 638.33 271.172 638.465 271.452 638.735C271.742 639.005 271.887 639.34 271.887 639.74C271.887 640.13 271.742 640.46 271.452 640.73C271.172 640.99 270.812 641.12 270.372 641.12ZM280.783 629.885C281.853 629.885 282.708 630.165 283.348 630.725C283.998 631.285 284.323 632.075 284.323 633.095C284.323 634.035 284.013 634.77 283.393 635.3C282.783 635.82 281.973 636.085 280.963 636.095L280.888 637.22H278.638L278.563 634.43H279.463C280.233 634.43 280.818 634.335 281.218 634.145C281.628 633.955 281.833 633.61 281.833 633.11C281.833 632.76 281.738 632.485 281.548 632.285C281.358 632.085 281.093 631.985 280.753 631.985C280.393 631.985 280.113 632.09 279.913 632.3C279.713 632.5 279.613 632.775 279.613 633.125H277.198C277.178 632.515 277.303 631.965 277.573 631.475C277.853 630.985 278.263 630.6 278.803 630.32C279.353 630.03 280.013 629.885 280.783 629.885ZM279.793 641.12C279.343 641.12 278.973 640.99 278.683 640.73C278.403 640.46 278.263 640.13 278.263 639.74C278.263 639.34 278.403 639.005 278.683 638.735C278.973 638.465 279.343 638.33 279.793 638.33C280.233 638.33 280.593 638.465 280.873 638.735C281.163 639.005 281.308 639.34 281.308 639.74C281.308 640.13 281.163 640.46 280.873 640.73C280.593 640.99 280.233 641.12 279.793 641.12ZM295.468 641.105C294.698 641.105 294.008 640.98 293.398 640.73C292.788 640.48 292.298 640.11 291.928 639.62C291.568 639.13 291.378 638.54 291.358 637.85H294.088C294.128 638.24 294.263 638.54 294.493 638.75C294.723 638.95 295.023 639.05 295.393 639.05C295.773 639.05 296.073 638.965 296.293 638.795C296.513 638.615 296.623 638.37 296.623 638.06C296.623 637.8 296.533 637.585 296.353 637.415C296.183 637.245 295.968 637.105 295.708 636.995C295.458 636.885 295.098 636.76 294.628 636.62C293.948 636.41 293.393 636.2 292.963 635.99C292.533 635.78 292.163 635.47 291.853 635.06C291.543 634.65 291.388 634.115 291.388 633.455C291.388 632.475 291.743 631.71 292.453 631.16C293.163 630.6 294.088 630.32 295.228 630.32C296.388 630.32 297.323 630.6 298.033 631.16C298.743 631.71 299.123 632.48 299.173 633.47H296.398C296.378 633.13 296.253 632.865 296.023 632.675C295.793 632.475 295.498 632.375 295.138 632.375C294.828 632.375 294.578 632.46 294.388 632.63C294.198 632.79 294.103 633.025 294.103 633.335C294.103 633.675 294.263 633.94 294.583 634.13C294.903 634.32 295.403 634.525 296.083 634.745C296.763 634.975 297.313 635.195 297.733 635.405C298.163 635.615 298.533 635.92 298.843 636.32C299.153 636.72 299.308 637.235 299.308 637.865C299.308 638.465 299.153 639.01 298.843 639.5C298.543 639.99 298.103 640.38 297.523 640.67C296.943 640.96 296.258 641.105 295.468 641.105ZM303.526 631.76C303.076 631.76 302.706 631.63 302.416 631.37C302.136 631.1 301.996 630.77 301.996 630.38C301.996 629.98 302.136 629.65 302.416 629.39C302.706 629.12 303.076 628.985 303.526 628.985C303.966 628.985 304.326 629.12 304.606 629.39C304.896 629.65 305.041 629.98 305.041 630.38C305.041 630.77 304.896 631.1 304.606 631.37C304.326 631.63 303.966 631.76 303.526 631.76ZM304.801 632.63V641H302.236V632.63H304.801ZM311.19 632.51C311.78 632.51 312.295 632.63 312.735 632.87C313.185 633.11 313.53 633.425 313.77 633.815V632.63H316.335V640.985C316.335 641.755 316.18 642.45 315.87 643.07C315.57 643.7 315.105 644.2 314.475 644.57C313.855 644.94 313.08 645.125 312.15 645.125C310.91 645.125 309.905 644.83 309.135 644.24C308.365 643.66 307.925 642.87 307.815 641.87H310.35C310.43 642.19 310.62 642.44 310.92 642.62C311.22 642.81 311.59 642.905 312.03 642.905C312.56 642.905 312.98 642.75 313.29 642.44C313.61 642.14 313.77 641.655 313.77 640.985V639.8C313.52 640.19 313.175 640.51 312.735 640.76C312.295 641 311.78 641.12 311.19 641.12C310.5 641.12 309.875 640.945 309.315 640.595C308.755 640.235 308.31 639.73 307.98 639.08C307.66 638.42 307.5 637.66 307.5 636.8C307.5 635.94 307.66 635.185 307.98 634.535C308.31 633.885 308.755 633.385 309.315 633.035C309.875 632.685 310.5 632.51 311.19 632.51ZM313.77 636.815C313.77 636.175 313.59 635.67 313.23 635.3C312.88 634.93 312.45 634.745 311.94 634.745C311.43 634.745 310.995 634.93 310.635 635.3C310.285 635.66 310.11 636.16 310.11 636.8C310.11 637.44 310.285 637.95 310.635 638.33C310.995 638.7 311.43 638.885 311.94 638.885C312.45 638.885 312.88 638.7 313.23 638.33C313.59 637.96 313.77 637.455 313.77 636.815ZM324.641 632.54C325.621 632.54 326.401 632.86 326.981 633.5C327.571 634.13 327.866 635 327.866 636.11V641H325.316V636.455C325.316 635.895 325.171 635.46 324.881 635.15C324.591 634.84 324.201 634.685 323.711 634.685C323.221 634.685 322.831 634.84 322.541 635.15C322.251 635.46 322.106 635.895 322.106 636.455V641H319.541V632.63H322.106V633.74C322.366 633.37 322.716 633.08 323.156 632.87C323.596 632.65 324.091 632.54 324.641 632.54ZM339.263 632.63V641H336.698V639.86C336.438 640.23 336.083 640.53 335.633 640.76C335.193 640.98 334.703 641.09 334.163 641.09C333.523 641.09 332.958 640.95 332.468 640.67C331.978 640.38 331.598 639.965 331.328 639.425C331.058 638.885 330.923 638.25 330.923 637.52V632.63H333.473V637.175C333.473 637.735 333.618 638.17 333.908 638.48C334.198 638.79 334.588 638.945 335.078 638.945C335.578 638.945 335.973 638.79 336.263 638.48C336.553 638.17 336.698 637.735 336.698 637.175V632.63H339.263ZM345.021 633.815C345.271 633.425 345.616 633.11 346.056 632.87C346.496 632.63 347.011 632.51 347.601 632.51C348.291 632.51 348.916 632.685 349.476 633.035C350.036 633.385 350.476 633.885 350.796 634.535C351.126 635.185 351.291 635.94 351.291 636.8C351.291 637.66 351.126 638.42 350.796 639.08C350.476 639.73 350.036 640.235 349.476 640.595C348.916 640.945 348.291 641.12 347.601 641.12C347.021 641.12 346.506 641 346.056 640.76C345.616 640.52 345.271 640.21 345.021 639.83V644.99H342.456V632.63H345.021V633.815ZM348.681 636.8C348.681 636.16 348.501 635.66 348.141 635.3C347.791 634.93 347.356 634.745 346.836 634.745C346.326 634.745 345.891 634.93 345.531 635.3C345.181 635.67 345.006 636.175 345.006 636.815C345.006 637.455 345.181 637.96 345.531 638.33C345.891 638.7 346.326 638.885 346.836 638.885C347.346 638.885 347.781 638.7 348.141 638.33C348.501 637.95 348.681 637.44 348.681 636.8ZM367.935 641H365.37L361.08 634.505V641H358.515V630.47H361.08L365.37 636.995V630.47H367.935V641ZM374.954 641.12C374.134 641.12 373.394 640.945 372.734 640.595C372.084 640.245 371.569 639.745 371.189 639.095C370.819 638.445 370.634 637.685 370.634 636.815C370.634 635.955 370.824 635.2 371.204 634.55C371.584 633.89 372.104 633.385 372.764 633.035C373.424 632.685 374.164 632.51 374.984 632.51C375.804 632.51 376.544 632.685 377.204 633.035C377.864 633.385 378.384 633.89 378.764 634.55C379.144 635.2 379.334 635.955 379.334 636.815C379.334 637.675 379.139 638.435 378.749 639.095C378.369 639.745 377.844 640.245 377.174 640.595C376.514 640.945 375.774 641.12 374.954 641.12ZM374.954 638.9C375.444 638.9 375.859 638.72 376.199 638.36C376.549 638 376.724 637.485 376.724 636.815C376.724 636.145 376.554 635.63 376.214 635.27C375.884 634.91 375.474 634.73 374.984 634.73C374.484 634.73 374.069 634.91 373.739 635.27C373.409 635.62 373.244 636.135 373.244 636.815C373.244 637.485 373.404 638 373.724 638.36C374.054 638.72 374.464 638.9 374.954 638.9ZM394.06 632.63L391.795 641H388.96L387.64 635.57L386.275 641H383.455L381.175 632.63H383.74L384.925 638.615L386.335 632.63H389.05L390.475 638.585L391.645 632.63H394.06Z" fill="#EEEEEE"/>
<path d="M255.926 262.032H297.357V263.996C297.357 267.362 294.416 270.067 290.802 270.067H288.894L280.18 278.077V270.067H262.481C258.867 270.067 255.926 267.362 255.926 263.996V262.032V262.032ZM255.926 259.924H297.357V252.335H255.926V259.924ZM255.926 250.156H297.357V242.567H255.926V250.156ZM290.792 232.361H262.481C258.867 232.361 255.926 235.067 255.926 238.406V240.397H297.357V238.406C297.347 235.067 294.406 232.361 290.792 232.361Z" fill="#EEEEEE"/>
<path d="M229.268 225.006C229.268 224.205 229.551 223.521 230.117 222.955C230.703 222.369 231.396 222.076 232.197 222.076H232.227L261.494 221.9H261.553C262.354 221.9 263.037 222.193 263.604 222.779C264.189 223.346 264.482 224.029 264.482 224.83C264.482 225.631 264.189 226.324 263.604 226.91C263.037 227.477 262.354 227.76 261.553 227.76H261.523L249.863 227.818L249.717 261.451V261.48C249.717 262.262 249.424 262.936 248.838 263.502C248.271 264.068 247.588 264.352 246.787 264.352C245.986 264.352 245.293 264.068 244.707 263.502C244.141 262.936 243.857 262.262 243.857 261.48V261.422L244.004 227.848L232.227 227.936H232.197C231.396 227.936 230.703 227.652 230.117 227.086C229.551 226.5 229.268 225.807 229.268 225.006Z" fill="#EEEEEE"/>
</g>
<defs>
<clipPath id="clip0">
<rect x="37" y="39" width="442.298" height="744" rx="17" fill="white"/>
</clipPath>
</defs>
</svg>
