<svg width="25" height="27" viewBox="0 0 25 27" fill="none" xmlns="http://www.w3.org/2000/svg">
<path d="M21.1115 5.58359C17.7725 2.8728 13.3346 2.25577 9.64798 3.07333C5.52342 -1.81495 0.901474 0.433465 0 1.07983C0 1.07983 3.17187 4.39166 2.65668 7.2923C-1.09852 11.9961 0.68663 17.2331 2.65668 19.706C3.17187 22.6067 0 25.9185 0 25.9185C0.892793 26.567 5.50216 28.8085 9.64798 23.9453C13.3264 24.7575 17.7643 24.1458 21.1115 21.4302C26.2877 17.3696 26.3046 9.66498 21.1115 5.58306V5.58359ZM12.7682 21.4041C11.4774 21.4086 10.1916 21.2048 8.94399 20.7977L8.08592 21.8158C7.6093 22.3838 7.07561 22.8746 6.49781 23.2765C5.7968 23.7102 5.03525 23.9768 4.25346 24.0621C4.29686 23.9672 4.33506 23.8722 4.37369 23.7826C5.23219 21.8272 5.46367 20.0728 5.06813 18.5194C3.65624 17.1536 2.81119 15.4081 2.81119 13.4994C2.81119 9.12634 7.27038 5.58359 12.7682 5.58359C18.266 5.58359 22.7252 9.12634 22.7252 13.4994C22.7252 17.8725 18.266 21.4041 12.7682 21.4041ZM7.9913 15.382C7.59712 15.3889 7.2168 15.2034 6.93368 14.8663C6.65056 14.5293 6.48774 14.068 6.48089 13.5837C6.45051 11.163 9.42489 11.1102 9.45484 13.5256V13.5528C9.45667 13.7911 9.42025 14.0275 9.34767 14.2485C9.27509 14.4695 9.16777 14.6707 9.03185 14.8407C8.89592 15.0107 8.73406 15.1461 8.55551 15.2391C8.37696 15.3322 8.18524 15.3811 7.9913 15.3831V15.382ZM11.1931 13.5837C11.1588 11.163 14.1332 11.1049 14.1675 13.5202V13.5528C14.1844 15.9569 11.2274 15.983 11.1931 13.5837ZM17.4162 15.382C17.022 15.3889 16.6416 15.2034 16.3584 14.8664C16.0752 14.5293 15.9123 14.0681 15.9053 13.5837C15.8754 11.163 18.8498 11.1102 18.8797 13.5256V13.5528C18.8822 13.7913 18.8462 14.028 18.7739 14.2494C18.7015 14.4707 18.5942 14.6723 18.4582 14.8424C18.3221 15.0126 18.16 15.1479 17.9812 15.2407C17.8023 15.3335 17.6103 15.3819 17.4162 15.3831V15.382Z" fill="#EEEEEE"/>
</svg>
