<svg width="74" height="57" viewBox="0 0 74 57" fill="none" xmlns="http://www.w3.org/2000/svg">
<path d="M35 40.9965H73.5V42.7449C73.5 45.7409 70.7667 48.1489 67.4083 48.1489H65.6358L57.5384 55.2775V48.1489H41.0917C37.7333 48.1489 35 45.7409 35 42.7449V40.9965V40.9965ZM35 39.121H73.5V32.3659H35V39.121ZM35 30.4268H73.5V23.6718H35V30.4268ZM67.399 14.5882H41.0917C37.7333 14.5882 35 16.9962 35 19.9684V21.7406H73.5V19.9684C73.4907 16.9962 70.7573 14.5882 67.399 14.5882Z" fill="#EEEEEE"/>
<path d="M3.87109 4.20703C3.87109 3.24609 4.21094 2.42578 4.89062 1.74609C5.59375 1.04297 6.42578 0.691406 7.38672 0.691406H7.42188L42.543 0.480469H42.6133C43.5742 0.480469 44.3945 0.832031 45.0742 1.53516C45.7773 2.21484 46.1289 3.03516 46.1289 3.99609C46.1289 4.95703 45.7773 5.78906 45.0742 6.49219C44.3945 7.17187 43.5742 7.51172 42.6133 7.51172H42.5781L28.5859 7.58203L28.4102 47.9414V47.9766C28.4102 48.9141 28.0586 49.7227 27.3555 50.4023C26.6758 51.082 25.8555 51.4219 24.8945 51.4219C23.9336 51.4219 23.1016 51.082 22.3984 50.4023C21.7188 49.7227 21.3789 48.9141 21.3789 47.9766V47.9062L21.5547 7.61719L7.42188 7.72266H7.38672C6.42578 7.72266 5.59375 7.38281 4.89062 6.70312C4.21094 6 3.87109 5.16797 3.87109 4.20703Z" fill="#EEEEEE"/>
</svg>
