<svg width="35" height="35" viewBox="0 0 35 35" fill="none" xmlns="http://www.w3.org/2000/svg">
<path d="M16.8399 23.184H16.84C18.3207 23.1837 19.7626 22.733 20.9766 21.8973L24.4318 25.3535L24.5785 25.5003L24.786 25.5C25.2847 25.4994 25.7931 25.4408 26.1344 25.0981C26.4842 24.7468 26.519 24.2411 26.4936 23.7641L26.4835 23.5727L26.348 23.4372L22.8926 19.9808C23.7287 18.7663 24.1795 17.3236 24.1799 15.8421V15.842C24.1799 11.7935 20.8876 8.5 16.8399 8.5C12.7923 8.5 9.5 11.7935 9.5 15.842C9.5 19.8905 12.7923 23.184 16.8399 23.184ZM16.8399 11.2105C19.3928 11.2105 21.4699 13.288 21.4699 15.842C21.4699 18.396 19.3928 20.4735 16.8399 20.4735C14.2871 20.4735 12.21 18.396 12.21 15.842C12.21 13.288 14.2871 11.2105 16.8399 11.2105Z" fill="#0092CA" />
</svg>
